<svg width="531" height="399" viewBox="0 0 531 399" fill="none" xmlns="http://www.w3.org/2000/svg">
<path d="M341.524 170.207C332.625 170.821 327.771 181.716 325.905 170.339C306.494 170.539 290.187 170.318 284.959 163.489C280.458 158.412 293.696 154.3 307.728 152.507C311.69 150.988 316.048 150.173 319.016 151.587C327.797 151.301 334.893 152.202 335.327 154.689C336.075 155.11 336.772 155.618 337.408 156.224C344.159 157.632 349.44 160.193 352.64 163.489C368.479 143.409 396.478 144.752 408.498 147.934C439.892 157.833 446.326 186.705 445.619 199.903C447.033 218.004 429.711 193.893 421.579 200.964C420.731 176.925 403.078 170.443 394.357 170.207C368.62 170.207 363.6 192.597 364.307 203.793V240.913C354.691 260.993 344.038 249.28 339.913 240.913L341.524 170.207Z" fill="black"/>
<path d="M24.7715 200.964C25.9028 222.742 46.6905 226.772 56.9429 226.065C75.3269 225.005 49.6732 237.258 50.7338 237.258C53.2792 251.399 78.6628 251.753 56.9429 249.751C31.2438 247.382 17.5689 238.202 10.9828 229.599C-0.0482523 217.155 -0.212757 197.546 1.08387 189.297C6.45755 162.428 29.4843 150.526 40.3259 147.934C64.3661 140.863 86.1672 155.358 94.0628 163.489C109.571 183.619 96.5148 208.876 97.1472 219.592L100.06 222.41C100.394 223.086 100.649 223.808 100.841 224.553C101.815 224.65 102.47 224.88 102.892 225.191L105.953 226.065C111.937 220.862 106.973 232.284 103.369 231.474C99.3811 239.797 101.427 235.061 101.368 229.006C101.008 227.936 100.734 226.474 100.582 224.531C98.2473 223.913 97.2997 222.175 97.1472 219.592L83.6122 206.501C84.4607 177.087 59.7709 169.146 48.4582 170.207C27.4276 172.179 23.8288 192.833 24.7715 200.964Z" fill="black"/>
<path d="M282.85 200.964C283.981 222.742 304.769 226.772 315.021 226.065C333.405 225.005 331.284 232.781 332.344 232.781C334.89 246.922 323.701 249.751 315.021 249.751C289.213 249.751 275.647 238.202 269.061 229.599C258.03 217.155 257.866 197.546 259.162 189.297C264.536 162.428 287.563 150.526 298.404 147.934C322.444 140.863 344.246 155.358 352.141 163.489C371.387 188.471 346.64 221.349 358.66 224.531C361.727 224.75 361.165 227.983 359.749 231.522C361.937 239.501 365.402 233.163 358.66 239.026C349.044 259.106 343.539 249.28 339.414 240.913V203.792C340.262 174.379 317.849 169.146 306.537 170.207C286.826 172.055 281.907 192.833 282.85 200.964Z" fill="black"/>
<path d="M107.05 200.917C108.181 222.695 128.969 226.725 139.222 226.018C157.605 224.959 155.484 232.734 156.544 232.734C159.09 246.875 147.901 249.704 139.222 249.704C113.413 249.704 99.8475 238.155 93.2613 229.552C82.2303 217.108 82.0658 197.499 83.3624 189.25C88.7361 162.381 111.763 150.479 122.604 147.887C146.645 140.816 168.446 155.311 176.341 163.442C192.18 143.362 220.179 144.705 232.199 147.887C263.593 157.786 270.027 186.658 269.32 199.856C270.734 217.957 255.887 232.734 247.755 239.805C237.997 248.29 219.59 250.293 211.341 249.704C199.462 249.987 195.079 243.223 194.371 239.805C192.675 226.23 204.977 224.957 211.341 226.018C235.381 228.564 243.984 210.345 245.28 200.917C244.432 176.878 226.779 170.396 218.058 170.16C192.321 170.16 187.301 192.55 188.008 203.746V240.866C178.392 260.946 167.739 249.233 163.614 240.866V203.746C164.463 174.332 142.049 169.099 130.737 170.16C109.525 175.251 106.107 192.786 107.05 200.917Z" fill="#E65A41"/>
<path d="M90.7876 193.299C97.9397 234.029 129.676 226.417 139.929 225.71C156.545 223.943 156.545 233.272 156.545 233.272C158.666 246.569 147.902 250.242 139.222 250.242C113.414 250.242 99.8477 238.693 93.2616 230.09C82.2306 217.646 82.0661 198.036 83.3627 189.787C90.0805 159.6 111.959 150.45 122.8 147.857C101.588 152.948 89.499 173.16 90.7876 193.299Z" fill="#C84F39"/>
<path d="M261.552 193.299C254.4 234.029 222.664 226.418 212.411 225.711C195.795 223.943 194.374 234.117 194.374 234.117C192.252 247.414 204.438 250.242 213.118 250.242C238.926 250.242 252.492 238.693 259.078 230.09C270.109 217.646 270.274 198.037 268.977 189.788C262.259 159.6 239.896 149.565 229.054 146.973C250.266 152.064 262.841 173.16 261.552 193.299Z" fill="#C84F39"/>
<path d="M445.475 200.964C446.606 222.742 467.394 226.772 477.646 226.065C496.03 225.005 493.908 232.781 494.969 232.781C497.514 246.922 486.326 249.751 477.646 249.751C451.838 249.751 438.272 238.202 431.686 229.599C420.655 217.155 420.49 197.546 421.787 189.297C427.161 162.428 450.187 150.526 461.029 147.934C485.069 140.863 506.87 155.358 514.766 163.489C532.35 186.314 527.376 238.454 529.891 245.401L530.83 246.096C525.19 253.532 517.578 250.926 517.543 245.696C510.18 256.431 505.596 248.129 502.039 240.913V203.792C502.887 174.379 480.474 169.146 469.161 170.207C447.579 172.23 444.532 192.833 445.475 200.964Z" fill="black"/>
</svg>
